<?xml version="1.0" standalone="no"?>
<!DOCTYPE svg PUBLIC "-//W3C//DTD SVG 20010904//EN"
 "http://www.w3.org/TR/2001/REC-SVG-20010904/DTD/svg10.dtd">
<svg version="1.0" xmlns="http://www.w3.org/2000/svg"
 width="700.000000pt" height="700.000000pt" viewBox="0 0 700.000000 700.000000"
 preserveAspectRatio="xMidYMid meet">
<metadata>
Created by potrace 1.14, written by Peter Selinger 2001-2017
</metadata>
<g transform="translate(0.000000,700.000000) scale(0.100000,-0.100000)"
fill="#000000" stroke="none">
<path d="M2695 6623 c-861 -59 -1539 -475 -1856 -1138 -138 -288 -211 -660
-195 -995 37 -755 348 -1358 879 -1704 180 -118 446 -227 672 -276 536 -115
1229 -21 1766 241 78 38 143 68 144 67 15 -17 486 -1194 482 -1206 -2 -9 -113
-293 -246 -631 -132 -338 -240 -615 -238 -617 8 -8 463 -101 468 -96 4 4 401
1040 884 2302 482 1262 879 2298 882 2303 2 4 -116 7 -264 7 l-268 0 -474
-1327 c-260 -731 -477 -1332 -481 -1336 -4 -4 -241 592 -527 1325 l-521 1333
-266 3 c-146 1 -266 -1 -266 -5 0 -5 155 -386 344 -848 l343 -840 -36 -22
c-68 -43 -286 -136 -431 -184 -159 -53 -339 -92 -500 -110 -154 -17 -460 -6
-582 20 -296 64 -526 188 -733 396 -271 270 -428 632 -476 1093 -17 165 -7
459 20 596 89 445 342 816 701 1030 430 256 1107 317 1618 147 99 -33 114 -35
121 -22 13 24 131 310 131 317 0 23 -294 121 -445 147 -184 33 -437 45 -650
30z"/>
</g>
</svg>
